<svg xmlns="http://www.w3.org/2000/svg" viewBox="0 0 1061 102.42"><defs><style>.cls-1{fill:#0f6;}</style></defs><title>infi-markdown logo 2</title><g id="Layer_2" data-name="Layer 2"><g id="Layer_1-2" data-name="Layer 1"><path d="M170.82,55.06v45.62H144.74V59c0-5.37-3.23-7.92-7.53-7.92-5.11,0-7.53,3.49-7.53,7.52v42.13H103.6V29.84H129v6.7c2.55-3.62,9-8.45,17.74-8.45C163.56,28.09,170.82,38.69,170.82,55.06Z"/><path d="M182,50.36h-7.4V29.84H182V28.49C182,9.71,196.41,0,212.27,0a54.94,54.94,0,0,1,7.67.54v21.2a20.67,20.67,0,0,0-3.77-.41,8.06,8.06,0,0,0-7.93,7.57v.94h10.22V50.36H208.24v50.32H182Z"/><path d="M224.1,29.84h26.09v70.84H224.1Z"/><path class="cls-1" d="M337.3,45.26V71.34H264.81V45.26Z"/><path d="M455,100.68H429V58.41C429,54,426.27,51,422.1,51s-6.45,3.22-6.45,7.38v42.27H389.7V59c0-5-2.42-7.92-6.72-7.92-4,0-6.45,2.42-6.45,7.52v42.13H350.44V29.84h25.41v6.7c2.42-3.75,7.67-8.45,17.21-8.45,7.8,0,13.85,3.09,17.88,8.32,4.31-4.83,10.63-8.32,19.77-8.32,16.13,0,24.33,12.21,24.33,27Z"/><path d="M488,55.06a30.08,30.08,0,0,1,12.64,2.68V55.6c0-2.82-2.69-5.64-9.28-5.64A43.46,43.46,0,0,0,474,54l-9.68-16.91c7.66-5.23,19.49-9,30.11-9,25.68,0,32.27,14,32.27,30.46v42.13H503.3l-1.47-3.89c-3.9,4-9.95,5.63-16.81,5.63-12.77,0-25.14-7.91-25.14-23.74C459.88,64.45,470.77,55.06,488,55.06Zm5.51,28c3.77,0,7.53-1.61,7.53-5.36s-3.5-5.64-7.66-5.64c-3.9,0-7.4,2-7.4,5.64S489.73,83.1,493.49,83.1Z"/><path d="M577.7,53.45a15.63,15.63,0,0,0-4.17-.54c-8.74,0-13.58,5.5-13.58,14.76v33H533.87V29.84h25.41v9A20.69,20.69,0,0,1,577.7,28.09Z"/><path d="M582.45,1.16h26.09v56.4l16.67-27.37h29.17L631.8,62.63l24.46,38.05H625.61L608.54,69.57v31.11H582.45Z"/><path d="M725.31,100.69h-24.2V96.15c-2.69,2.67-8.87,6.27-18.15,6.27-20.7,0-35.22-15.35-35.22-37s12.91-37,33.48-37a28.53,28.53,0,0,1,18,6.14V1.16h26.08ZM687,50.62c-8.34,0-13.18,6.14-13.18,14.82,0,9,5,14.69,13.18,14.69,8.6,0,13-6.68,13-14.69C700,56.1,694.79,50.62,687,50.62Z"/><path d="M769.19,102.42c-22.45,0-39.53-15.69-39.53-37.16s17.08-37.17,39.53-37.17,39.53,15.7,39.53,37.17S791.64,102.42,769.19,102.42Zm0-22.4c7.8,0,13.44-5.77,13.44-14.76s-5.64-14.9-13.44-14.9-13.45,5.91-13.45,14.9S761.39,80,769.19,80Z"/><path d="M861.52,65l-7.94,35.69H824.14L805.05,29.84h28.5L840.81,73s.14-.54,8.74-43.2h24.2c8.47,42.66,8.6,43.2,8.6,43.2l7.26-43.2h28.64L899,100.68H869.58Z"/><path d="M989.5,55.06v45.62H963.42V59c0-5.37-3.23-7.92-7.53-7.92-5.11,0-7.53,3.49-7.53,7.52v42.13H922.28V29.84h25.41v6.7c2.56-3.62,9-8.45,17.75-8.45C982.24,28.09,989.5,38.69,989.5,55.06Z"/><path class="cls-1" d="M0,56.68,58.62,30.84v21.8L23.8,65.56,58.62,78.48v21.94L0,74.58Z"/><path class="cls-1" d="M1061,74.58l-58.62,25.84V78.48l34.82-12.92-34.82-12.92V30.84L1061,56.68Z"/><rect class="cls-1" x="71.29" y="1.16" width="26.42" height="20.88"/><polygon class="cls-1" points="97.71 29.67 97.71 58.3 71.29 100.57 71.29 29.67 97.71 29.67"/><rect x="223.98" y="1.16" width="26.42" height="20.71"/></g></g></svg>